<?xml version="1.0" encoding="UTF-8"?>
<svg version="1.1" viewBox="0 0 2048 441" width="1280" height="1280" xmlns="http://www.w3.org/2000/svg">
<path transform="translate(1645,2)" d="m0 0h5l1 13v195l-1 23-3 20-7 21-9 17-9 12-9 10-13 10-16 9-16 6-20 4-9 1h-14l-22-3-17-5-16-8-13-9-12-11-10-12-8-13-7-15-5-17-3-17v-30l4-20 8-20 10-16 9-11 8-8 14-10 17-9 20-6 17-2h14l17 2 17 4 20 8 6 4v50l-4-1-16-9-16-7-12-3-19-1-16 2-13 5-10 6-10 9-8 13-5 12-3 15v22l3 15 5 12 7 12 10 10 13 8 10 4 16 3h14l12-2 12-5 10-6 10-9 9-14 5-13 4-20 1-178 2-15 6-12 9-10 11-7 7-2z" fill="#4AAA52"/>
<path transform="translate(1e3 101)" d="m0 0h14l18 2 16 4 16 7 10 6 13 10 12 12 11 16 8 16 5 15 3 16 1 7v29l-4 20-5 14-8 15-10 13-15 15-15 10-17 8-19 5-14 2h-15l-21-3-18-5-17-8-3-3v-47l1-2 5 2 16 9 15 6 11 3 7 1h14l16-3 12-5 10-6 7-6 9-12 6-15 3-16v-21l-3-16-5-12-6-10-9-10-14-9-14-5-18-2-17 1-13 4-11 6-10 9-7 10-7 14-5 19-1 7-1 44v98l-1 79-11-1-10-3-10-6-8-8-6-11-2-6-1-7v-174l2-20 4-18 5-14 8-16 10-14 10-11 14-11 19-10 17-5 11-2z" fill="#4AAA52"/>
<path transform="translate(1257,101)" d="m0 0h27l17 3 17 6 19 10 16 12 10 9 11 14 8 14 7 20 4 24v24l-12 1h-183l4 13 7 14 9 10 8 7 14 8 14 5 14 2 14-1 10-3 12-6 13-10 13-13 1-2 6 1 13 10 18 13 4 3-2 5-9 13-9 10-13 10-17 9-16 5-17 3h-27l-17-3-21-7-19-10-11-8-10-9-8-8-10-14-8-16-5-13-4-18-1-9v-13l3-19 5-17 8-16 8-13 9-11 12-12 14-10 17-9 20-6zm3 46-14 4-12 7-11 9-9 10-8 14v3l27 1h105l1-2-8-17-10-11-14-9-13-6-12-3z" fill="#4AAA52"/>
<path transform="translate(1922,101)" d="m0 0h15l20 2 17 4 15 6 13 7 12 9 12 12 10 16 7 17 5 19v146l-9-1-13-4-10-6-7-7-6-10-2-5-1-6-1-96-2-13-5-12-7-10-8-7-14-8-13-4-15-2h-12l-14 2-13 5-10 6-10 9-7 10-7 15-4 16-1 14 2 15 5 15 7 12 9 11 13 9 11 5 10 3 7 1h14l16-4 10-5 10-8 10-10 6-8h2v57l-5 5-10 7-15 7-15 4-15 2h-10l-21-3-17-5-19-10-10-8-11-10-11-14-9-16-6-15-5-21-1-8v-27l2-14 5-18 8-16 7-11 9-10 11-11 15-10 15-7 13-4 16-3z" fill="#4AAA52"/>
<path transform="translate(735,101)" d="m0 0h12l18 2 15 4 12 5 15 8 13 10 12 11 11 14 9 16 6 16 4 22v26l-4 22-6 16-8 15-9 12-14 14-14 10-17 9-18 6-16 3-9 1h-14l-20-3-15-4-14-6-16-10-13-11-8-8-10-14-7-12-7-19-3-14-1-12v-13l2-19 5-18 10-21 9-13 12-13 12-10 17-10 15-6 15-4zm4 46-14 1-12 3-15 8-10 9-9 12-6 14-3 13-1 6v17l3 17 7 16 7 10 10 10 14 8 15 5 8 1h15l15-3 12-5 11-7 11-11 8-14 5-16 1-5v-29l-4-16-8-15-11-12-9-7-12-6-11-3z" fill="#4AAA52"/>
<path transform="translate(260,101)" d="m0 0h11l18 2 16 4 16 7 12 7 13 10 11 10 10 13 8 14 6 14 5 21 1 23-2 21-6 21-8 16-8 12-9 10-8 8-14 10-19 10-21 6-20 3h-15l-24-4-15-5-16-8-13-9-12-11-10-11-9-14-6-13-6-20-2-12v-27l4-20 7-19 9-16 10-13 12-12 14-10 15-8 17-6 16-3zm2 46-17 2-14 5-13 9-8 8-8 13-5 13-2 9-1 10v11l2 16 5 15 6 10 8 10 12 9 15 7 15 3h15l16-3 12-5 11-7 10-10 8-13 5-14 2-10v-26l-3-14-5-12-8-12-10-10-11-7-14-5-16-2z" fill="#4AAA52"/>
<path transform="translate(462,2)" d="m0 0h5l1 4v184l18-1 14-3 8-5 6-7 19-32 21-35 2-1h53l-2 5-16 28-15 25-12 19-8 10-6 6v2l11 4 12 8 8 8 6 10 4 11 3 17v79h-9l-13-4-10-6-7-7-6-11-3-9-1-34-4-16-4-6-9-6-7-2-12-1-41-1v102l-1 1h-7l-12-3-11-6-8-8-6-10-3-10v-263l4-11 7-10 9-8 10-5z" fill="#4AAA52"/>
<path transform="translate(43,48)" d="m0 0 5 1v57h81l1 1v44l-1 1h-81l1 123 4 10 9 5 4 1 59 1 4 1 1 8v35l-1 2h-66l-17-3-14-6-9-7-8-8-8-14-5-15-2-7v-196l8-15 7-8 10-6 7-3z" fill="#4AAA52"/>
<path transform="translate(1709,106)" d="m0 0h48v232h-8l-12-3-10-6-8-7-7-12-3-11z" fill="#4AAA52"/>
<path transform="translate(1731,30)" d="m0 0 10 1 10 5 7 8 3 7v15l-6 12-8 6-6 2-9 1-10-2-8-5-6-7-3-8-1-9 3-11 9-10 8-4z" fill="#4AAA52"/>
</svg>
