<?xml version="1.0" encoding="UTF-8"?>
<svg version="1.1" viewBox="0 0 2048 665" width="1280" height="1280" xmlns="http://www.w3.org/2000/svg">
<path transform="translate(244)" d="m0 0h38l33 5 21 5 24 8 25 12 19 12 16 12 13 11 5 5-2 4-14 15-31 31-5-3-13-11-19-12-16-8-15-6-21-6-21-3h-36l-24 4-18 5-21 9-18 10-11 8-11 9-12 11-7 8-10 13-9 15-8 15-8 21-5 19-3 20-1 11v18l3 24 5 21 7 19 8 17 8 13 10 14 11 12 13 13 19 14 20 11 19 8 22 6 21 3 14 1h11l29-3 23-5 16-6 16-8 14-8 10-8 13-11 7-7 11-15 8-16 6-16 7-27 1-9h-165l-2-6v-53l1-10 3-1h231l2 8 2 17 1 23-2 27-5 30-7 25-6 16-8 16-9 16-9 12-11 13-19 19-14 11-13 9-21 12-23 10-20 6-24 5-32 4h-37l-23-3-24-5-23-7-23-10-23-12-15-10-12-9-14-12-21-21-9-11-10-13-13-21-12-24-8-22-6-23-3-16-2-21v-33l3-27 5-22 9-27 11-24 10-17 11-16 13-16 11-12 13-13 14-11 12-9 19-12 17-9 24-10 23-7 26-5z" fill="#427FF4"/>
<path transform="translate(1405,183)" d="m0 0h17l21 3 16 5 16 8 11 7 10 9 7 6-1-2v-13l1-13h68v319l-3 24-6 25-6 15-8 16-7 11-8 10-9 10-11 9-14 9-16 8-18 6-20 4-7 1-28 1-17-1-22-4-18-6-17-8-15-10-14-12-13-13-10-13-8-13-8-14 2-4 12-5 33-14 14-5 5 5 8 14 12 13 7 7 11 7 12 6 13 4 7 1h22l16-3 14-5 14-8 11-10 7-10 7-14 5-19 1-7 2-44-6 4-8 8-15 10-15 7-17 5-16 3h-27l-22-4-24-8-19-10-14-10-12-11-8-7-10-11-9-13-9-16-6-13-7-21-3-15-2-20v-13l3-23 6-23 8-19 8-15 12-17 12-13 10-10 17-13 19-11 21-8 18-4zm3 65-15 3-16 7-13 9-12 11-11 16-8 17-5 19-1 7v25l4 19 6 15 8 14 12 14 10 8 14 8 12 5 15 3 15 1 18-3 14-5 14-8 13-11 11-15 8-16 4-13 2-10v-38l-3-14-4-12-9-17-10-13-11-10-15-9-14-5-11-2z" fill="#427FF4"/>
<path transform="translate(689,183)" d="m0 0h11l24 2 19 4 20 7 16 8 17 11 13 11 14 14 10 13 9 15 8 17 6 18 4 20 2 23-1 19-4 24-6 20-11 23-10 15-8 10-9 10-10 9-17 12-21 11-24 8-25 5-8 1h-27l-25-4-23-7-23-11-12-8-14-11-17-17-11-15-10-18-6-14-6-19-4-21v-41l5-24 6-18 8-17 10-16 11-14 16-16 15-11 13-8 14-7 24-8 22-4zm-6 65-14 3-15 6-14 9-12 11-10 13-6 10-6 16-3 13-1 9v21l2 14 5 16 8 16 10 13 9 9 13 9 14 7 8 3 21 3h11l16-3 16-6 12-7 10-8 11-11 9-14 7-16 4-16 2-14v-9l-3-22-5-16-8-16-8-11-12-12-15-10-11-5-14-4-7-1z" fill="#E34335"/>
<path transform="translate(1051,183)" d="m0 0h14l21 2 16 3 21 7 16 8 14 8 14 11 13 12 9 10 11 16 11 21 8 24 3 15 2 17v23l-3 23-6 21-6 15-7 14-10 15-12 14-11 11-16 12-16 9-17 8-19 6-23 4-9 1h-25l-26-4-20-6-16-7-19-11-13-10-22-22-12-17-10-19-7-20-5-20-2-18v-20l2-20 6-24 6-16 10-19 8-11 7-9 12-13 8-7 15-11 18-10 20-8 20-5 13-2zm-4 65-16 3-13 5-14 9-10 9-7 7-9 13-7 15-5 17-2 13v18l4 22 7 18 10 16 11 12 15 11 17 8 12 3 13 2h13l19-4 12-5 11-6 13-10 8-8 10-15 5-10 5-16 3-15v-21l-2-13-4-15-5-12-7-12-8-10-8-8-10-7-11-6-13-5-16-3z" fill="#FCB616"/>
<path transform="translate(1878,183)" d="m0 0h16l19 2 17 4 18 7 20 12 13 11 10 9 12 14 10 15 12 23 8 20 1 6-4 3-36 15-29 12-87 36-39 16-23 9h-2l5 10 9 12 7 8 13 9 14 7 11 3 17 2h11l22-4 16-7 13-8 13-12 8-10 2-3 5 1 10 7 35 23 6 4-1 5-9 11-11 12-12 11-10 7-15 9-17 8-19 6-30 5h-27l-26-4-24-8-19-9-18-12-12-11-13-13-12-17-8-14-8-18-5-17-4-20-1-12v-21l2-18 5-23 7-19 11-21 9-13 9-11 13-13 18-13 18-10 16-6 15-4 13-2zm4 63-18 4-17 8-11 8-12 11-9 12-7 15-4 14-3 21v4l9-2 28-12 19-8 22-9 36-15 27-11 7-3 1-4-9-13-10-8-16-8-12-3-7-1z" fill="#E34335"/>
<path transform="translate(1623,20)" d="m0 0h71l1 1v481l-1 1h-71l-1-1v-481z" fill="#37A05A"/>
</svg>
