<?xml version="1.0" encoding="UTF-8"?>
<svg version="1.1" viewBox="0 0 2048 521" width="1280" height="1280" xmlns="http://www.w3.org/2000/svg">
<path transform="translate(1173)" d="m0 0h22l17 5 15 8 12 9 10 10-1 4-11 9-13 12-14 12-10 9-6 5-4-2-9-10-12-11-8-6-9-3-9 2-6 4-4 5-2 8v7l3 8 5 5 9 5 12 2 61 1-4 16-3 10-1 1h-52l-1 11-10 52-9 43-10 44-9 35-10 33-11 30-12 25-12 21-9 14-12 16-9 10-5 6-8 7-12 10-19 12-23 11-21 6-12 2-11 1h-19l-19-2-14-4-16-8-9-6-10-9-10-11-8-14-4-10-2-9v-18l3-12 8-16 7-9 7-7 14-9 13-6 15-4 7-1h115l-6 22-2 2-104 1-15 5-11 7-8 8-8 14-3 10v14l4 11 7 10 3 3v2l4 2 9 7 12 6 12 3h35l20-5 16-9 13-12 11-14 8-13 8-16 6-14 7-22 11-44 14-67 9-50 9-57 5-33 1-4-43 1-1-5 4-12 2-9 9-3 13-5 13-8 9-9 8-11 11-14 11-13 11-12 12-11 11-7 12-5z" fill="#044F90"/>
<path transform="translate(769,7)" d="m0 0h2l-1 9-26 133-25 125v12l4 7 5 4 10 4 5 1h17v7l-2 9-4 3-120 15h-8l1-9 31-158 8-43-18 2-13 4-14 9-11 11-7 10-11 21-11 33-5 23-2 15v19l3 15 6 12 6 7 8 5 15 5 1 1-1 11-3 7-15 2h-34l-15-2-18-6-11-6-10-9-7-9-7-15-4-14-1-7v-21l3-18 5-18 10-24 11-20 12-16 11-12 13-11 15-10 23-11 19-6 14-3 23-3 26-1 5-27v-11l-5-8-7-4-12-3h-16l-1-3 4-10 1-6 9-2 59-8z" fill="#044F90"/>
<path transform="translate(2034,7)" d="m0 0h2l-1 11-17 87-21 106-13 65v9l4 7 6 5 10 4 21 2v8l-1 7-2 2-43 6-78 10h-10l2-10 12-63 16-82 11-55-14 1-15 4-13 7-12 11-9 12-9 16-8 21-7 23-4 21-1 8v23l3 16 5 10 7 8 10 6 13 5 1 3-2 13-1 2-16 2h-35l-14-2-17-5-11-6-10-9-7-8-6-10-5-14-2-9-1-9v-13l2-15 5-20 6-16 7-16 8-14 9-13 11-13 9-9 17-13 16-9 13-6 19-6 21-4 17-2h25l6-30v-7l-5-10-10-5-10-2h-16l1-5 4-13 3-2 49-7 66-8z" fill="#044F90"/>
<path transform="translate(411,93)" d="m0 0h20l16 4 10 6 7 8 5 11 3 13v28l-8 45-11 58-3 13v9l4 8 10 5 3 1 14 1-2 16-2 2-115 14h-5l1-7 20-100 8-39 1-18-2-10-6-10-10-6-4-1h-11l-10 3-11 7-4 6-5 19-21 106-9 46-2 4h-81l1-11 7-34 18-91 6-31 1-17-2-8-4-6-8-5-9-1h-5l-1-2 2-15 3-2 36-5 77-10h7l-2 10-5 20 31-19 15-7 15-5z" fill="#044F90"/>
<path transform="translate(70,23)" d="m0 0h181l2 7 3 17-22 2-12 3-10 6-6 7-4 10-13 66-17 89-16 82-3 16 1 10 5 10 6 5 10 4 19 3-2 9-4 12-3 2h-180l-1-1-1-13-3-4v-6l17-1 13-4 10-6 7-7 7-14 5-21 21-107 11-55 12-62v-13l-5-10-8-6-9-3-5-1-15-1 1-6z" fill="#054F90"/>
<path transform="translate(895,90)" d="m0 0h29l19 3 17 6 14 7 14 10 15 15 8 11 8 16 5 14 3 14 1 10v10l-2 17-4 17-8 20-9 16-9 12-9 10-10 10-15 11-17 10-17 7-17 5-18 3-19 1-24-3-16-5-18-8-13-9-11-9-11-14-7-11-6-13-5-17-2-11v-27l5-23 7-18 8-15 12-17 15-16 14-11 15-10 19-9 20-6zm10 26-10 4-10 9-10 15-8 17-9 28-6 27-3 20-1 11v28l2 14 5 13 7 9 7 5 3 1h12l10-4 9-7 8-9 8-14 6-14 7-24 5-24 4-27 1-28-2-21-5-14-9-10-7-4-4-1z" fill="#044F90"/>
<path transform="translate(1314,90)" d="m0 0h29l19 3 15 5 16 8 13 9 12 11 10 12 9 16 6 16 3 15 1 8v18l-3 19-5 17-8 18-10 16-8 10-9 10-10 9-17 12-17 9-19 7-16 4-14 2h-27l-18-3-18-6-19-10-13-10-8-8-11-15-8-15-5-15-3-13-1-9v-16l2-15 5-19 5-12 9-17 10-14 11-12 10-10 15-11 21-12 16-6 21-5zm10 26-9 4-9 7-10 14-8 16-6 16-6 22-5 24-3 20-1 24 1 18 4 16 6 10 9 8 5 2h11l9-3 9-7 7-7 9-14 7-16 5-15 6-25 5-32 1-16v-19l-1-14-3-12-6-11-8-7-9-3z" fill="#044F90"/>
<path transform="translate(1603,90)" d="m0 0h29l19 3 15 5 16 8 14 10 12 11 11 15 8 15 5 15 3 17v26l-2 14-5 17-8 18-10 16-13 16-12 12-18 13-21 11-19 7-19 4-8 1h-28l-18-3-18-6-17-9-9-7-10-9-9-10-9-14-6-13-5-17-2-12v-25l3-17 7-21 8-16 8-12 13-16 9-9 17-13 17-10 21-9 16-4zm10 26-10 4-11 10-9 14-7 14-9 27-6 26-4 24-2 21v13l3 19 4 12 6 9 6 5 7 3h11l14-7 9-8 7-10 8-16 5-13 7-26 5-27 3-27v-23l-2-14-4-12-6-10-9-6-7-2z" fill="#044F90"/>
<path transform="translate(1131,358)" d="m0 0 892 1-4 19-3 5h-895l5-11 4-13z" fill="#044E90"/>
<path transform="translate(222,358)" d="m0 0h618l-4 4-8 5-5 4-8 12h-601l3-11 4-13z" fill="#044E90"/>
<path transform="translate(344,438)" d="m0 0h25l-2 4-4 5-3 15-5 33-1 13 17-1 5-8 2 2-1 6-1 2h6l4-4 12-26 8-18 4-8v-9l-4-4v-2h18l2 10 7 49 2 9 3 4v3h-23l2-4 2-2v-15h-21l-4 8-2 7 2 5-1 1h-59v-3l5-3h2l1-13 7-46v-5l-4-1-2-3zm69 16-13 30v1h19l-4-29z" fill="#6D6E6D"/>
<path transform="translate(1768,438)" d="m0 0h18l2 2 10 52 8-14 14-27 7-13h17v3l-6 5-2 7-7 49 1 5 3 2-1 4h-24l6-7 3-10 4-33-1-1-11 22-10 18-6 10-2 1-8-36-4-15-2 10-5 35 4 1 1 4-1 1h-16l6-7 8-46 1-4v-8l-5-5z" fill="#6D6E6D"/>
<path transform="translate(453,438)" d="m0 0h18l2 3 8 43 1 7h2l14-27 13-25 1-1h17v3l-6 4-2 7-8 55 4 1 1 4-1 1h-24l6-8 2-4 5-34v-8l-12 25-12 22-4 6-2 1-9-40-3-11-1-1-6 46 4 2v3l-1 1h-15l1-3 5-4 5-30 3-20 1-7-7-9z" fill="#6E6F6E"/>
<path transform="translate(1116,438)" d="m0 0h17l3 9 6 30 3 16 11-20 15-30 3-5h17l-2 4-4 4-4 22-5 32v6l4 2-1 5h-24l6-7 3-11 4-30v-5l-24 46-3 6h-3l-3-12-7-36-2-4-6 37-1 10 5 2v3l-4 1h-12l1-4 3-1 4-20 5-32v-10l-5-5zm26 60 1 2z" fill="#6E6F6E"/>
<path transform="translate(1712,438)" d="m0 0h35l5 3 4 6 1 4v10l-4 8-4 5-6 4 1 7 8 20 2 7-1 1h-12l-4-9-6-21-2-3-5-1-2 16-1 11 4 3v4h-23l2-5 3-4 3-13 5-33v-12l-3-5zm19 4-2 2-4 23v7h11l6-7 3-10-1-10-4-4-2-1z" fill="#6E6F6E"/>
<path transform="translate(536,438)" d="m0 0h35l6 3 4 5 1 3v8l-4 8-8 6-1 2 5 2 5 8 1 3v9l-5 10-8 7-6 2-12 1-11-1-4-2-1-3 7-49 2-8-1-6zm21 4-3 5-3 22 1 1h11l6-8 2-5v-8l-4-6-2-1zm-7 33-3 18v13l3 3 6 1 6-3 4-5 2-6v-10l-3-7-5-4z" fill="#5E5F5E"/>
<path transform="translate(1604,438)" d="m0 0h35l6 3 4 8v7l-4 8-9 8 8 7 3 6-1 13-3 6-4 5-8 4-3 1h-23l-4-2v-10l7-45 1-11-5-5zm20 4-3 9-3 14v5h12l7-9 1-2v-11l-4-5-2-1zm-6 33-2 6-2 13v14l3 1h8l6-4 3-5 1-5v-9l-3-8-5-3z" fill="#5E5F5E"/>
<path transform="translate(1283,437)" d="m0 0 4 2-6 8-3 10-2 14 6-5 14-19 6-8 2-1h10l-6 7-10 10-10 13-1 6 10 19 7 13 4 4-1 3h-15l-8-16-8-18v-2h-2l-1 16-1 13 4 2v4l-2 1h-22l-1-2 6-5 2-8 7-44 1-7-1-4-4-2-1-3z" fill="#6E6F6E"/>
<path transform="translate(1381,438)" d="m0 0h19l6 12 13 31 4 10h2l6-38v-8l-5-5v-2h18l-1 4-4 4-5 25-4 23-2 16-1 3h-8l-5-8-15-35-6-13-5 30-3 20 5 2v3l-2 1h-15l6-7 7-45 2-9-1-6-6-6z" fill="#6E6F6E"/>
<path transform="translate(1512,438)" d="m0 0h18l8 16 13 31 3 6v2h2v-8l6-36-1-5-5-4v-2h18l1 3-6 2-6 36-5 31-1 3-5 1-4-2-9-19-15-35-1-2-5 30-3 21 6 2-1 3-3 1h-12l1-4 3-3 6-36 3-21-4-6-2-2z" fill="#6E6F6E"/>
<path transform="translate(655,438)" d="m0 0h19l8 16 14 33 3 6 3-17 4-27-1-5-4-4v-2h18l-1 4-4 2-2 4-7 46-2 13-2 6-6 1-4-5-9-19-8-18-7-15-1 1-4 33-2 11v5l4 2-1 4h-15l2-4 4-2 3-23 4-26 2-7-6-9z" fill="#6E6F6E"/>
<path transform="translate(751,437)" d="m0 0h18l8 4 1 2v11h-3l-7-10-6-2-9 1-8 6-6 10-4 13v17l4 11 5 6 7 2 8-3 6-7v-9l-4-7v-2l17-1 1 5-5 26-2 4-7-1-1-2 3-6-6 6-7 3h-14l-8-5-6-7-4-9-1-4v-16l5-15 8-11 11-8z" fill="#5F605F"/>
<path transform="translate(1851,438)" d="m0 0h26l-2 4-4 4-3 12-4 25v16l3 5 4 2h9l6-5 4-10 6-36 1-9-5-5v-3h17l-1 4-4 1-6 39-4 16-6 9-7 6-3 1h-14l-6-3-5-6-2-6v-17l5-29v-8z" fill="#6E6F6E"/>
<path transform="translate(1970,438)" d="m0 0h25l-1 3-5 2-5 25-2 14v16l3 6 3 2h10l5-4 5-12 6-35v-11l-4-4v-2h13l6 1-3 3-5 1-3 23-4 24-4 11-4 6-7 6-11 2-9-2-7-6-3-7v-17l5-34v-5l-4-3z" fill="#6E6F6E"/>
<path transform="translate(1463,438)" d="m0 0h19l2 11 7 50 2 7 3 3v4h-23l2-4 3-3-1-13-22-2-3 9-3 6 3 3v3l-2 1h-13l6-8 8-15 12-28 6-12-1-5-5-6zm8 17-13 28v2h19l-3-25-1-5z" fill="#6E6F6E"/>
<path transform="translate(1213,438)" d="m0 0h18l2 11 7 49 3 9 2 2v4h-23l2-4 2-2 1-7v-9l-22 1-5 10-1 4 2 6-2 1h-12v-3l5-4 8-16 12-27 6-11-1-7-4-5zm7 16-10 23-3 8h19l-3-23-2-8z" fill="#6E6F6E"/>
<path transform="translate(608,438)" d="m0 0h18l1 1 6 45 4 21 3 4v4h-23l2-4 3-1v-17l-22 1-4 8-1 7 1 5-2 1h-13l2-4 5-5 8-16 12-27 5-10v-5l-5-6zm8 16-6 12-8 18v1h18v-10l-3-21z" fill="#6D6E6D"/>
<path transform="translate(1333,438)" d="m0 0h19l7 48 3 21 3 1 1 4-1 1h-22v-3l4-3v-16h-22l-2 5-4 11 3 3-1 3h-13l6-9 13-28 9-20 2-3v-7l-5-7zm8 17-5 10-8 19v1h19l-3-23-2-7z" fill="#6E6F6E"/>
<path transform="translate(1661,438)" d="m0 0h40l1 2-2 11-5-5-4-3h-11l-3 22v4l17 1v4l-1 1h-18l-3 23-1 9h17l3-3 4-6 2 1-2 11-2 3h-35l-1-5 4-25 4-28v-10l-4-5z" fill="#6E6F6E"/>
<path transform="translate(1915,436)" d="m0 0 12 1 38 1-1 5-14 1-4 1-5 30-4 26v6l4 2v4h-25l4-5h2l5-27 6-37h-17l-2-1v-6z" fill="#6E6F6E"/>
<path transform="translate(1174,438)" d="m0 0h17l-2 4-4 4-4 22-5 32v6l4 2-1 5h-24l6-7 3-11 4-30v-5l-6 11-4-1 2-6 10-18 3-7z" fill="#6E6F6E"/>
<path transform="translate(344,438)" d="m0 0h25l-2 4-4 5-3 15-5 33-1 14 8 1v1l11 1v1h-39v-3l5-3h2l1-13 7-46v-5l-4-1-2-3z" fill="#6E6F6E"/>
<path transform="translate(1828,440)" d="m0 0h8l2 1 1 4-2 3-8 54 1 5 3 2-1 4h-24l6-7 3-10 4-33-1-5 6-15z" fill="#6D6E6D"/>
<path transform="translate(1723,442)" d="m0 0 5 2 1 7-3 16v7l8 1v1l-6 1 2 2h-6l-2 16-1 11 4 3v4h-23l2-5 3-4 3-13 5-33 1-11z" fill="#6D6E6E"/>
<path transform="translate(514,440)" d="m0 0h2v2l6 1-2 5v11l-7 48 4 1 1 4-1 1h-24l6-8 2-4 5-34v-11z" fill="#6D6E6D"/>
<path transform="translate(536,438)" d="m0 0h18l-1 2-4 1h5l-2 14v11h-1l-1 8h7v1h-7l-2 18-1 17 4 2h-14l-1-1-1-17 4-25 2-13 1-8z" fill="#6D6E6D"/>
<path transform="translate(859,491)" d="m0 0 5 2 12 5 16 5 24 3h34l20-4 16-6 11-3h3l-1 3-19 9-21 6-12 2-11 1h-19l-19-2-14-4-16-8-9-6z" fill="#09447F"/>
<path transform="translate(1616,441)" d="m0 0 5 1v14l-3 14h11v1h-12l-1 13-1 4-2 6-1 16h5l1 2h-13l-3-3v-14l6-38 3-11z" fill="#6D6E6D"/>
<path transform="translate(1463,438)" d="m0 0h19l2 11 4 30v10h-1l-6-40-2-6-4 5-17 37 18-1v-13h1l1 8v12h-23l-3 9-3 6 3 3v3l-2 1h-13l6-8 8-15 12-28 6-12-1-5-5-6z" fill="#606160"/>
<path transform="translate(1426,438)" d="m0 0h18l-1 4-4 4-5 25-4 23-2 16-1 3h-8l-5-8-15-35-5-11 1-3 12 25 8 18v2h2v2l4-1v-6l3-1v2h2l-1-3 5-35 1-6v-8l-5-5z" fill="#5E5F5E"/>
<path transform="translate(406,438)" d="m0 0 10 1-2 1v12l-6 16-7 16 18 1 1-4 1 14-2-3h-21l-4 8-2 7 2 5-1 1-33-1v-1l-7-2v-1l18-1 5-8 2 2-1 6-1 2h6l4-4 12-26 8-18 4-8v-9l-4-4z" fill="#5F6161"/>
<path transform="translate(2010,438)" d="m0 0h13l6 1-3 3-5 1-3 23-4 24-4 11-4 6-7 6-11 2-9-2-7-6-1-5 4 5h5l1-3-1-7 2 1 3 6 3 2h10l5-4 5-12 6-35v-11l-4-4z" fill="#5E605F"/>
<path transform="translate(1556,438)" d="m0 0h18l1 3-6 2-6 36-5 31-1 3-5 1-4-2-9-19-14-33 1-3 10 21 5 12 7 14 4 1 3-4 1-16 6-36-1-5-5-4z" fill="#5F605F"/>
<path transform="translate(1333,438)" d="m0 0h19l7 48 3 21 3 1 1 4-5-1-3-13-8-53-2-4h-5l-2 4 1 9-12 27-6 13-5 13 3 3-1 3h-13l6-9 13-28 9-20 2-3v-7l-5-7z" fill="#626362"/>
<path transform="translate(701,438)" d="m0 0h18l-1 4-4 2-2 4-7 46-2 13-2 6-6 1-4-5-9-19-12-27 1-3 10 19 9 21 4 7 1 1v-3h2v2h2l-1-6 3 4v-7l-1-8 6-41-1-5-4-4z" fill="#5F6060"/>
<path transform="translate(1381,438)" d="m0 0h19l6 12 10 24-1 3-4-8-9-19-5-8h-5l-2 4 2 8-1 13-6 40 5 2v3l-2 1h-15l6-7 7-45 2-9-1-6-6-6z" fill="#5F605F"/>
<path transform="translate(1512,438)" d="m0 0h18l8 16 6 15-1 3-11-24-5-7-5 1-1 6 1 3v9l-7 47 6 2-1 3-3 1h-12l1-4 3-3 6-36 3-21-4-6-2-2z" fill="#5F605F"/>
<path transform="translate(1604,438)" d="m0 0h35l6 3 4 8v7l-4 8-8 7-7-1 7-11v-11l-5-5h-8l-3 9h-1l1-10-5-1-2 4-3 1-1 2-6-7z" fill="#5E5F5E"/>
<path transform="translate(733,453)" d="m0 0h6l-3 9-3 11-1 13 3 12 2 7-1 2-5-2-6-8-3-8h-1v-16l3-10 3-3 3-5z" fill="#6E6F6E"/>
<path transform="translate(608,438)" d="m0 0 11 1-1 2h-2v12l-4 11-9 20 17 1v-13h1l1 16-1-2-2 1-17 1-1 1h22l1 4v7l-2-4v-5l-22 1-4 8-1 7 1 5-2 1h-13l2-4 5-5 8-16 12-27 5-10v-5l-5-6z" fill="#5F605F"/>
<path transform="translate(1892,438)" d="m0 0h17l-1 4-4 1-6 39-4 16-6 9-7 6h-5l2-1-1-2-3-2 6-2 6-5 4-10 6-36 1-9-5-5z" fill="#595D60"/>
<path transform="translate(1213,438)" d="m0 0 10 1-3 1v17l-12 27 18 1 1-3v6h-14l14 1v2l-22 1-5 10-1 4 2 6-2 1h-12v-3l5-4 8-16 12-27 6-11-1-7-4-5z" fill="#405364"/>
<path transform="translate(512,438)" d="m0 0h17v3l-6 4-3 9h-1l1-9 1-1-5-2v-2h-2l-2 5-5 11-4 10-8 16-13 24-4 6-2 1-4-18v-7l2 4 1 6 5 1 6-12 10-19 15-29z" fill="#5F605F"/>
<path transform="translate(910,359)" d="m0 0h104l-6 22-4 2-56-1 1-2 43-2 9-2 4-4 1-5-2-3-3-1-33-2h-33l-25-1z" fill="#04427F"/>
<path transform="translate(1912,97)" d="m0 0h19v1l-14 1-10 3-19 2-20 5-17 6-19 9-11 8-11 10-8 7-9 10-5 6-1-3 7-9 9-10 12-11 13-9 14-8 13-6 19-6 21-4z" fill="#0D477F"/>
<path transform="translate(453,438)" d="m0 0h18l2 3 6 31v8h-1l-7-34-2-5h-9l1 5 2 5-2 27-4 29 4 2v3l-1 1h-15l1-3 5-4 5-30 3-20 1-7-7-9z" fill="#5C5F61"/>
<path transform="translate(1116,438)" d="m0 0h13l-1 3h-2v19l-6 37-1 10 5 2v3l-4 1h-12l1-4 3-1 4-20 5-32v-10l-5-5z" fill="#3C5164"/>
<path transform="translate(217,376)" d="m0 0 8 1 33 2h74l14 1-2 2-93 1h-37l2-6z" fill="#024180"/>
<path transform="translate(1603,90)" d="m0 0h29l19 3 15 5 5 2v3l-7-1-21-6-15-2h-24l-19 3-14 4-18 7-9 3v-2l16-8 12-5 16-4z" fill="#0D467F"/>
<path transform="translate(646,97)" d="m0 0h21v1l-12 2-15 2-19 2-21 6-28 12-8 4-13 10-5 2v-3l13-10 16-9 15-7 19-6 14-3zm-102 40m-2 1 2 1-12 12v-3z" fill="#0C467F"/>
<path transform="translate(774,479)" d="m0 0 5 1-2 16-4 16-1 2-7-1-1-2 3-6-4 3v-2l-3-1 5-7v-9l-4-7v-2z" fill="#6D6E6D"/>
<path transform="translate(1827,438)" d="m0 0h17v3l-4 3h-2v-3l-10-1-2 5-7 19-10 20-10 18-6 10-2 1-4-18v-7l2 4 2 7h4l6-12 12-22 8-15z" fill="#5F605F"/>
<path transform="translate(729,299)" d="m0 0 9 2 5 1h17v7l-2 9-4 3-41 5-3-1h2v-2l7-3 23-2 5-3 1-6-9-4-8-3z" fill="#09457F"/>
<path transform="translate(1906,125)" d="m0 0h6l2 2-9 3-15 8-12 11-9 12-9 16-7 18h-2l1-9 4-10 8-16 1-4h2l1-4 2-3h2v-2h2l2-4 13-11 9-4z" fill="#0A457F"/>
<path transform="translate(655,438)" d="m0 0 9 1-2 2 1 5 3 5-2 25-4 26v5l4 2-1 4h-15l2-4 4-2 3-23 4-26 2-7-6-9z" fill="#5D6060"/>
<path transform="translate(1314,90)" d="m0 0h29l19 3 15 5 9 4 1 3-10-2-11-4-20-5h-30l-20 3-17 4-1-3 21-6z" fill="#0C4680"/>
<path transform="translate(213,329)" d="m0 0 9 2h25l32-1 14 1-1 4h-81v-5z" fill="#034483"/>
<path transform="translate(899,359)" d="m0 0 10 1-3 2-24 6-21 9-7 6-8 6-3 1v2h-2l-2 4-1-4 9-10 10-8 17-9 13-4z" fill="#0B457F"/>
<path transform="translate(1776,452)" d="m0 0h2v13l-6 42 4 1 1 4-1 1h-16l6-7 8-46z" fill="#5F605F"/>
<path transform="translate(1304,438)" d="m0 0h10l-6 7-10 10-10 13-1 6 8 15-1 3-9-16-3-3-4-1 2-4 14-18 8-11z" fill="#5F605F"/>
<path transform="translate(822,358)" d="m0 0h18l-4 4-8 5-5 4-8 12h-16l-7-1 3-2 15-4 5-3h2l2-7v-3l-8-3v-1z" fill="#0B457E"/>
<path transform="translate(905,337)" d="m0 0h8l3 2-5 2-18 3-19 1-24-3-9-3v-1h22l21 1 7 2v-2z" fill="#0C467F"/>
<path transform="translate(230,23)" d="m0 0h21l2 7 3 17-18 1 2-1 1-4 4-5v-7l-7-3-12-3z" fill="#064380"/>
<path transform="translate(1712,438)" d="m0 0h35l5 3 4 6v8l-4-8-4 1-1 2-1 10h-1l-2-13-1-3-4-1h-7l-3 3-3-3-5 2-2 6-2-4-4-6z" fill="#5F605F"/>
<path transform="translate(1226,15)" d="m0 0 5 1 9 7 9 9-1 4-11 9-13 12-3 1 1-4 1-3h2l2-4 7-8h2l1-9-4-8-7-5z" fill="#08447F"/>
<path transform="translate(1310,118)" d="m0 0h7l-5 5-5 4-10 14-8 16-6 16h-2v-6l4-13 8-16 6-10 6-7z" fill="#09457F"/>
<path transform="translate(569,493)" d="m0 0h1l2 9 4-3 2-3-1 6-7 8-5 3-16 2-11-1-4-2-1-3 2-9h1l1 11h12l-3-3 1-3 1 3 8 1 6-3 4-6z" fill="#5C5E5E"/>
<path transform="translate(1147,95)" d="m0 0 13 2 61 1-4 16h-3l-2-9-6-3-15-1-31-1-12-1-3-1v-2z" fill="#064582"/>
<path transform="translate(1602,117)" d="m0 0 4 1-5 5-8 7-9 14-7 14-5 12-2-2 3-12 5-13 2-1 1-6h2l1-4 1-2h2l2-4 10-8z" fill="#094580"/>
<path transform="translate(1915,436)" d="m0 0 12 1 38 1-1 5h-18l-4-2h-8l1 5-1-2h-18l-2-1v-6z" fill="#5F605F"/>
<path transform="translate(1125,376)" d="m0 0 14 2 35 1 26 2v1l-54 1h-25z" fill="#03417F"/>
<path transform="translate(1332,466)" d="m0 0 2 1-1 7-5 11-4 9-5 13 3 3-1 3h-13l6-9 13-28z" fill="#595E60"/>
<path transform="translate(1938,379)" d="m0 0h79l-1 4-79-1z" fill="#02417F"/>
<path transform="translate(751,437)" d="m0 0h18l8 4 1 2v11h-3l-7-10-6-2-9 1-3 2h-3v-3l-6 1 4-4z" fill="#3A5063"/>
<path transform="translate(621,136)" d="m0 0h3v3l-8 7-10 11-9 16-7 15-2-1 1-6 4-10 7-12 9-14 8-7z" fill="#0E477F"/>
<path transform="translate(1661,438)" d="m0 0h40l1 2-2 11-5-5-4-3h-11l-2 4v-5h-9l-2 3-4-2z" fill="#5D5E5E"/>
<path transform="translate(599,486)" d="m0 0 1 3h23l1 4v7l-2-4v-5l-22 1-4 8-1 7 1 5-2 1h-13l2-4 5-5 8-16z" fill="#455462"/>
<path transform="translate(233,110)" d="m0 0h3v2l-12 6 1 5 5 5v3h-14l-1-2 2-15 3-2z" fill="#0A457F"/>
<path transform="translate(1915,22)" d="m0 0 4 1-2 4-2 2v7l2 5-1 1-14 1 1-5 4-13 3-2z" fill="#09447F"/>
<path transform="translate(492,479)" d="m0 0 2 2-1 4-13 25-4 3-4-18v-7l2 4 1 6 5 1 6-12 4-7z" fill="#5D5F5F"/>
<path transform="translate(1277,338)" d="m0 0h31l7 2 1 2-5 2h-27l-10-2-3-1v-2z" fill="#06437F"/>
<path transform="translate(376,499)" d="m0 0 2 2-1 6-1 2h6l9-4 3 5-1 3-33-1v-1l-7-2v-1l18-1z" fill="#5F605F"/>
<path transform="translate(1894,478)" d="m0 0 3 2v7l-4 13-6 8-6 5h-5l2-1-1-2-3-2 6-2 6-5 4-10 2-10z" fill="#3B5063"/>
<path transform="translate(1554,338)" d="m0 0h15l12 1h11l10 3-2 2h-28l-18-3z" fill="#0A457F"/>
<path transform="translate(1381,438)" d="m0 0h19l6 12 10 24-1 3-4-8-9-19-5-8h-5l-2 4 1 5-2 1-3-7-5-5z" fill="#5F605F"/>
<path transform="translate(895,118)" d="m0 0h2v2l-9 7-9 12-8 15-4 8h-2l1-8 5-12 3-4h2v-2l3-3 4-7h2l2-4z" fill="#0C467F"/>
<path transform="translate(390,97)" d="m0 0h4l-1 3-10 4-14 6-11 6h-2v2l-8 5h-4v-3l15-9 15-8z" fill="#0C4780"/>
<path transform="translate(186,374)" d="m0 0h2v7l-1 1h-47l-1-2 8-1 23-1 12-2z" fill="#024180"/>
<path transform="translate(1213,117)" d="m0 0h2l-1 7-1 1h-21l-20-1v-2l11-2h23z" fill="#034180"/>
<path transform="translate(670,460)" d="m0 0 3 4 8 15 9 21 4 7 1 1v-3h2v2h2l-1-6 2 2 2 4-1 6-6 1-4-5-9-19-12-27z" fill="#5F605F"/>
<path transform="translate(568,476)" d="m0 0 6 1 4 7v12l-3 5-3 1-2-3-1-20z" fill="#6F706F"/>
<path transform="translate(643,23)" d="m0 0 6 1-2 7v6l4 2 1 3-15 1-1-3 4-10 1-6z" fill="#09447F"/>
<path transform="translate(1159,469)" d="m0 0 2 1-1 5-18 36h-2l-1-9 2 1 5-12 10-18 1-3z" fill="#3B5063"/>
<path transform="translate(1805,484)" d="m0 0h2l-1 5-12 22-3 2-4-18v-7l2 4 2 7h4l6-12 4-1z" fill="#5F605F"/>
<path transform="translate(769,7)" d="m0 0h2l-1 9-6 28h-1l-1-8 2-17-2-7-6-1 3-3z" fill="#0D467F"/>
<path transform="translate(1009,437)" d="m0 0 2 1-4 9-7 9-4 6-11 10-11 7h-3l1-3 9-6 10-9 12-15z" fill="#094681"/>
<path transform="translate(469,303)" d="m0 0h12l-2 16-2 2-9 1 3-5v-7l-2-4z" fill="#094580"/>
<path transform="translate(1346,471)" d="m0 0h1l2 25-2-3v-2h-22l2-6 19-1z" fill="#646564"/>
<path transform="translate(1512,438)" d="m0 0h18l8 16 6 15-1 3-11-24-5-7-5 1-3 7-4-5-3-3z" fill="#606160"/>
<path transform="translate(1980,497)" d="m0 0 2 1 3 6 3 2 9 1-4 3 3 4-8 1-9-2-7-6-1-5 4 5h5l1-3z" fill="#5E5F5E"/>
<path transform="translate(942,93)" d="m0 0 18 6 14 7 14 10v3l-5-2-12-8-21-10-8-4z" fill="#0C4680"/>
<path transform="translate(1827,125)" d="m0 0 2 1-9 7-10 9-8 7-9 10-5 6-1-3 7-9 9-10 12-11 7-5z" fill="#0A4681"/>
<path transform="translate(1202,490)" d="m0 0 2 1-5 15 2 6-2 1h-12v-3l5-4 7-14z" fill="#3F5263"/>
<path transform="translate(1871,317)" d="m0 0 7 1 1 3-2 13-1 2-6 1h-8l2-4 6-2 2-5z" fill="#0A457F"/>
<path transform="translate(701,438)" d="m0 0h18l-1 4-4 2-6 11 1 4-1 2h-2v-15l-5-6z" fill="#394F63"/>
<path transform="translate(1701,286)" d="m0 0h3l-2 4-9 10-8 8-8 6h-2l1-4 5-5 2-3h2v-2l7-6 4-4h2l1-3z" fill="#0A4580"/>
<path transform="translate(360,328)" d="m0 0h20l8 1 1 2-10 2-17 2h-5l1-6z" fill="#0B457F"/>
<path transform="translate(740,442)" d="m0 0h7l1 4-6 7-2 2-1-1h-6l-3 1-2 5-3 4 1-6 8-11z" fill="#5D5E5E"/>
<path transform="translate(453,438)" d="m0 0h18l2 3 6 31v8h-1l-7-34-2-5h-9l1 5 2 5v4l-3 1v-7l-7-9z" fill="#626362"/>
<path transform="translate(6,377)" d="m0 0h12l21 3-1 2-33 1-1-2z" fill="#024280"/>
<path transform="translate(657,493)" d="m0 0 3 1v13l4 2-1 4h-15l2-4 4-2 1-9z" fill="#384F64"/>
<path transform="translate(1208,66)" d="m0 0h2l-1 4-11 9-4 4-4-2-3-4v-2l10-3z" fill="#0A457F"/>
<path transform="translate(1333,438)" d="m0 0h14l-5 4-1 3 1 9-7 16-2-1-1-5 6-11v-7l-5-7z" fill="#616261"/>
<path transform="translate(351,141)" d="m0 0h3v3l-10 3-11 7-4 5h-2l1-7 4-5h2v-2l8-3z" fill="#09447F"/>
<path transform="translate(1450,493)" d="m0 0h2v7l-3 6 3 3v3l-2 1h-13l6-8z" fill="#3D5162"/>
<path transform="translate(1207,482)" d="m0 0 1 2 18 1 1-3v6h-14l14 1v2l-23 1h-3l-1-2 3-6z" fill="#5C5D5C"/>
<path transform="translate(955,320)" d="m0 0 1 3-15 8-16 6-4-1 3-3 10-4 14-7z" fill="#0C467F"/>
<path transform="translate(1116,438)" d="m0 0h13l-1 3h-2v19l-1 5-2-2-2-17-5-5z" fill="#585D60"/>
<path transform="translate(1041,116)" d="m0 0 1 3 15 2 5 3v1l-19 2h-5l-1-5 3-5z" fill="#08437F"/>
<path transform="translate(883,386)" d="m0 0h7l-3 3-11 7-8 8h-2l1-7 6-7 6-3z" fill="#0C467F"/>
<path transform="translate(1636,477)" d="m0 0 4 1 3 3 1 8-3 9-3 1-1-2-2-17z" fill="#6F706F"/>
<path transform="translate(1970,438)" d="m0 0h25l-1 3-5 2-2 6h-1v-7h-6l-3 5-2 4-1-7-4-3z" fill="#5D5F60"/>
<path transform="translate(1131,358)" d="m0 0 48 1v1l-37 3-5 1h-8l1-5z" fill="#06427F"/>
<path transform="translate(2034,7)" d="m0 0h2l-1 11-2 11-2 1-2-14-2-3-7-2 1-2z" fill="#0E477F"/>
<path transform="translate(1026,191)" d="m0 0h1l1 5v10l-2 17-3 14-2-2v-11l3-9 1-23z" fill="#13487D"/>
<path transform="translate(1304,438)" d="m0 0h10l-6 7-8 8h-3l-1-4 3-6z" fill="#3A4F62"/>
<path transform="translate(333,97)" d="m0 0h7l-2 10-3 11-2-4-2-10-3-3v-2l-3-1z" fill="#0D477F"/>
<path transform="translate(1862,496)" d="m0 0 2 3 3 5 4 2 8 1-2 2 1 5h-14l-6-3-5-6 1-3 4 6 3 2h7l-2-4-4-5z" fill="#5D5F5F"/>
<path transform="translate(646,97)" d="m0 0h21v1l-12 2-15 2-19 1 2-3z" fill="#0E467E"/>
<path transform="translate(66,37)" d="m0 0 5 2 6 5v4h-16l1-5h2z" fill="#034382"/>
<path transform="translate(1112,44)" d="m0 0 1 4-6 9-9 10-8 8-2-1 22-28z" fill="#0C4780"/>
<path transform="translate(2022,303)" d="m0 0h3v8l-1 7-8 1 1-11-3-4z" fill="#07437F"/>
<path transform="translate(670,438)" d="m0 0 5 1 8 17 9 22-1 3-5-9-3-4-6-18-5-9z" fill="#5F605F"/>
<path transform="translate(1530,118)" d="m0 0 2 2-10 10-8 7-9 8-1-3 7-8 11-10z" fill="#0B4680"/>
<path transform="translate(1741,477)" d="m0 0 2 1 1 7 8 20 2 7-1 1h-12l-4-9-1-8 2 3 4 10 6 2h3l-3-9-6-15-2-9z" fill="#606160"/>
<path transform="translate(1283,491)" d="m0 0 3 4 7 14 4 2h4l-2-9-2-5h2l5 9 4 4-1 3h-15l-8-16z" fill="#5F605F"/>
<path transform="translate(759,505)" d="m0 0 4 1-1 4-8 4h-14l-3-3 10 1-3-5 7 1z" fill="#3A5063"/>
<path transform="translate(1426,438)" d="m0 0h18l-1 4-7 6-3-1v-2l-4-2-3-3z" fill="#3F5264"/>
<path transform="translate(1769,499)" d="m0 0 2 4v3l5 2 1 4-1 1h-16l6-7 1-5h2z" fill="#5B6063"/>
<path transform="translate(1695,498)" d="m0 0 2 1-2 11-1 2-15-1-7-2v-1l16-1 3-3z" fill="#4F5A63"/>
<path transform="translate(1173,439)" d="m0 0 3 1-3 5-6 17-5 9-4-1 2-6 10-18z" fill="#5F605F"/>
<path transform="translate(1945,438)" d="m0 0h20l-1 5h-18l-4-2v-2z" fill="#575B5D"/>
<path transform="translate(733,191)" d="m0 0 2 1-5 27-2 10-2-2v-11l3-8 2-15z" fill="#11487E"/>
<path transform="translate(589,502)" d="m0 0 5 1 2 9-2 1h-13l2-4 5-5z" fill="#585D60"/>
<path transform="translate(2010,438)" d="m0 0h13l6 1-3 3-5 1-1 5-4 2v-6l-4-2z" fill="#405364"/>
<path transform="translate(1445,200)" d="m0 0h1v20l-4 18-3 1 1-13 3-9z" fill="#0B457F"/>
<path transform="translate(1147,95)" d="m0 0 13 2 31 1v2h-31l-12-1-3-1v-2z" fill="#25517C"/>
<path transform="translate(761,480)" d="m0 0h12l-1 2-5-1v7l1 3v11l-3 5-2 1v-2l-3-1 5-7v-9l-4-7z" fill="#585D61"/>
<path transform="translate(627,327)" d="m0 0 2 4h21v3l-16 2h-8z" fill="#0E477F"/>
<path transform="translate(655,438)" d="m0 0 9 1-2 2 1 5 3 5-1 17-1-3-4 3 1-10 2-7-6-9z" fill="#5F605F"/>
<path transform="translate(1052,98)" d="m0 0h2l-1 5-5 4-3 5-4 1 2-12z" fill="#09447F"/>
<path transform="translate(1315,501)" d="m0 0h4v6l3 3-1 3h-13l6-9z" fill="#374E63"/>
<path transform="translate(775,495)" d="m0 0h1l-1 10-3 9-7-1-1-2 3-5 5-4z" fill="#585C5F"/>
<path transform="translate(561,124)" d="m0 0 2 1-5 6-10 7-3-1 5-5zm-17 13m-2 1 2 1-12 12v-3z" fill="#174F83"/>
<path transform="translate(1511,505)" d="m0 0h3v2l6 1v4l-3 1h-12l1-4z" fill="#5A5E60"/>
<path transform="translate(1160,4)" d="m0 0 2 3-3 3-3 2-7 2-5 3-3-1 5-5z" fill="#0C467F"/>
<path transform="translate(1676,470)" d="m0 0h18v4l-1 1h-9l-9-1z" fill="#5D5E5D"/>
<path transform="translate(1380,504)" d="m0 0 3 2v2h6l2 3-3 2h-15l6-7z" fill="#5F6161"/>
<path transform="translate(1283,437)" d="m0 0 4 2-6 7-1-4v-2l-13 1-1 3-5-5v-1z" fill="#626362"/>
<path transform="translate(895,90)" d="m0 0h29l-4 2-4 1h-26l2-2z" fill="#0E4780"/>
<path transform="translate(762,215)" d="m0 0h2v22l-1 11-2-3v-27z" fill="#154677"/>
<path transform="translate(1827,438)" d="m0 0h17v3l-4 3h-2v-3l-10-1-2 5-3 6-3 2 2-6z" fill="#606262"/>
<path transform="translate(641,125)" d="m0 0h8l-1 3-13 4-5 3h-4l2-4 5-3z" fill="#0A4580"/>
<path transform="translate(1166,485)" d="m0 0h1v7l-2 11v7l1 3h-11l6-7 3-11z" fill="#5C5F60"/>
<path transform="translate(1394,456)" d="m0 0 3 4 10 21 5 11-1 4-2-3-11-25-4-9z" fill="#616261"/>
<path transform="translate(518,438)" d="m0 0h11v3l-6 4-3 9h-1l1-9 1-1-5-2v-2l-2-1z" fill="#5D5E5D"/>
<path transform="translate(1100,367)" d="m0 0h2l-1 6-10 21-2 1 1-5 4-12z" fill="#094580"/>
<path transform="translate(872,94)" d="m0 0 3 1v2l-17 6-7-1 3-2z" fill="#0D4780"/>
<path transform="translate(1131,474)" d="m0 0 2 4 5 22 3-1-1 6 1 7h-3l-3-12-4-20z" fill="#5B5F60"/>
<path transform="translate(1525,457)" d="m0 0 3 4 9 20 5 11v3h-2l-15-35z" fill="#606160"/>
<path transform="translate(698,501)" d="m0 0 2 2 2 4-1 6-6 1-4-5-1-4 4 2 1 1v-3h2v2h2z" fill="#585D5F"/>
<path transform="translate(390,505)" d="m0 0 4 5-1 3h-11v-2h-6v-1l8-2z" fill="#405465"/>
<path transform="translate(1213,438)" d="m0 0 10 1-3 1v17l-2 2-2-4 2-5-2-6-3-4z" fill="#565B5F"/>
<path transform="translate(608,438)" d="m0 0 11 1-1 2h-2v12l-3 1v-8l-5-6z" fill="#5E5F5E"/>
<path transform="translate(454,498)" d="m0 0h2v13l-10 1v-2l5-4z" fill="#374E63"/>
<path transform="translate(1712,438)" d="m0 0 2 1h9v4l-4 3-1 5-2-4-4-6z" fill="#5B5D5D"/>
<path transform="translate(1734,197)" d="m0 0h1v18l-1 7-2 1v-21z" fill="#094580"/>
<path transform="translate(1894,468)" d="m0 0h5l-1 14h-3l-2-2z" fill="#5F605F"/>
<path transform="translate(662,465)" d="m0 0h2v11l-2 5-3 1v-12z" fill="#374E63"/>
<path transform="translate(183,359)" d="m0 0 11 1-2 9-3 1-4-8v-2z" fill="#12487E"/>
<path transform="translate(911,295)" d="m0 0 2 1-2 1zm-1 2 1 2-4 8-6 5-6 1v-2l8-6z" fill="#12497F"/>
<path transform="translate(1420,276)" d="m0 0h3l-2 5-6 8h-3l1-6 5-6z" fill="#0C467E"/>
<path transform="translate(1207,482)" d="m0 0 1 2 18 1v1h-19l-1 5h-3l-3 1 2-6 1-2z" fill="#666766"/>
<path transform="translate(1333,438)" d="m0 0h14l-5 4-2 6-7-9z" fill="#636565"/>
<path transform="translate(536,438)" d="m0 0h11l-3 4v13l-2 2v-9z" fill="#606160"/>
<path transform="translate(1130,438)" d="m0 0 4 1 4 17v6l-2-3-3-13-3-2z" fill="#5E605F"/>
<path transform="translate(1755,456)" d="m0 0h1v8l-7 10-5 2v-3l4-4h2l2-5 2-2z" fill="#5F605F"/>
<path transform="translate(1009,264)" d="m0 0 2 2-10 16-2 1-1-4 4-5 6-9z" fill="#10487F"/>
<path transform="translate(1724,249)" d="m0 0 2 2-7 15-2-1 2-10z" fill="#12487D"/>
<path transform="translate(1297,497)" d="m0 0h2l5 9 4 4-1 3h-9l3-2-2-9z" fill="#5C5E5F"/>
<path transform="translate(1665,319)" d="m0 0h2v2l-19 10-2-2 8-5 9-4z" fill="#154A7E"/>
<path transform="translate(471,154)" d="m0 0h1v9l-2 9h-2v-13z" fill="#084480"/>
<path transform="translate(442,97)" d="m0 0 7 1 9 6v2l-9-3-7-4z" fill="#0E477F"/>
<path transform="translate(1769,439)" d="m0 0h15v1l-8 2 1 8-4-5-4-3z" fill="#5D5E5D"/>
<path transform="translate(343,439)" d="m0 0h19v1l-10 2-1 8h-1l-1-7-4-1z" fill="#565B5E"/>
<path transform="translate(406,438)" d="m0 0 10 1-2 1v12l-3 1-1-9-4-4z" fill="#5B5E5F"/>
<path transform="translate(659,507)" d="m0 0 5 2-1 4h-15l1-2 10-1z" fill="#565E63"/>
<path transform="translate(376,499)" d="m0 0 2 2-1 6-2 3h-7l4-5z" fill="#4A5966"/>
<path transform="translate(710,438)" d="m0 0h9l-1 4-4 2-3 4-1-5v-4z" fill="#535C63"/>
<path transform="translate(1434,252)" d="m0 0h1l-1 7-4 8h-3l1-5z" fill="#0F477E"/>
<path transform="translate(739,163)" d="m0 0h1l-1 11-2 7h-2v-7l3-10z" fill="#0F477E"/>
<path transform="translate(1113,508)" d="m0 0 5 1v2h2v-3l4 1v3l-4 1h-8l-2-2z" fill="#575D60"/>
<path transform="translate(767,491)" d="m0 0h1v11l-3 5-2 1v-2l-3-1 6-8z" fill="#5F605F"/>
<path transform="translate(344,438)" d="m0 0h25l-2 4-4 2-1-5h-18z" fill="#656665"/>
<path transform="translate(1154,158)" d="m0 0h1l-1 10-2 8-2-1v-9z" fill="#0B457F"/>
<path transform="translate(1897,457)" d="m0 0 3 3v8l-5 1v-7z" fill="#3A4F63"/>
<path transform="translate(1768,438)" d="m0 0h18l2 2 1 5v8h-1l-3-11-1-3-16 1z" fill="#666766"/>
<path transform="translate(2013,359)" d="m0 0h10l-2 6-7-2-3-1v-2z" fill="#074480"/>
<path transform="translate(1412,123)" d="m0 0 4 1 8 9-1 2-4-2-7-8z" fill="#13497E"/>
<path transform="translate(513,174)" d="m0 0h2l-3 9-2 2-2 5-4 2 8-16z" fill="#184D7F"/>
<path transform="translate(607,317)" d="m0 0h5l1 1-1 11-2 2-1-9z" fill="#0A457E"/>
<path transform="translate(1447,507)" d="m0 0h4l1 5-2 1h-9l1-3h5z" fill="#5F6263"/>
<path transform="translate(1672,508)" d="m0 0h16l2 4-17-2z" fill="#5F605F"/>
<path transform="translate(1833,334)" d="m0 0 7 1-3 2-12 1-4-2v-1z" fill="#0C457E"/>
<path transform="translate(1798,330)" d="m0 0 11 2 9 3v1h-7l-11-3z" fill="#0C4780"/>
<path transform="translate(622,438)" d="m0 0 5 1 1 9v11h-1l-3-16z" fill="#5F605F"/>
<path transform="translate(512,438)" d="m0 0h6l-4 1-1 4-3 6-4 2 2-6z" fill="#616262"/>
<path transform="translate(502,499)" d="m0 0 1 4-6 9h10v1h-14l6-8z" fill="#5D5E5E"/>
<path transform="translate(1769,499)" d="m0 0 2 4 1 5-2 2h-5l2-9h2z" fill="#354D63"/>
<path transform="translate(1467,487)" d="m0 0h9l1 3h-11l-7-1v-1z" fill="#6F706F"/>
<path transform="translate(1479,497)" d="m0 0h1l1 15h-8l5-6z" fill="#5E5F5E"/>
<path transform="translate(1380,504)" d="m0 0 3 2v2h6l2 3-5 1v-2h-5l-2-4z" fill="#3C5062"/>
<path transform="translate(1851,438)" d="m0 0h10v2l-3 2-1 4z" fill="#5F605F"/>
<path transform="translate(1835,438)" d="m0 0h9v3l-4 3h-2v-3l-4-2z" fill="#5C5E5E"/>
<path transform="translate(1838,117)" d="m0 0 2 1-3 4-10 4-2-1zm-15 9 2 1z" fill="#174F83"/>
<path transform="translate(1533,477)" d="m0 0 3 1 5 12 1 5h-2l-7-16z" fill="#626362"/>
<path transform="translate(1408,457)" d="m0 0 2 3 6 14-1 3-8-16z" fill="#626362"/>
<path transform="translate(1322,338)" d="m0 0h8l2 2-7 2h-5l-1-3z" fill="#0E477F"/>
<path transform="translate(982,469)" d="m0 0 2 1-5 6-5 3h-3l1-3 9-6z" fill="#114980"/>
<path transform="translate(222,358)" d="m0 0h11l5 1-1 3h-6l-3-1v-2h-6z" fill="#24507B"/>
<path transform="translate(1158,139)" d="m0 0 1 3-3 13-2-1 1-10z" fill="#174B7D"/>
<path transform="translate(1147,95)" d="m0 0 13 2v2h-12l-3-1v-2z" fill="#144A7E"/>
<path transform="translate(1318,507)" d="m0 0 3 1 1 4-1 1h-13l2-2 6-1 2-1z" fill="#606262"/>
<path transform="translate(454,320)" d="m0 0h12v2l-5 1h-8l-1-2z" fill="#0B4680"/>
<path transform="translate(1359,498)" d="m0 0 2 3 1 6 3 1 1 4-5-1-2-7z" fill="#5F605F"/>
<path transform="translate(1283,437)" d="m0 0 4 2-6 7-1-4 1-4z" fill="#5E5F5E"/>
<path transform="translate(598,334)" d="m0 0h10l1 2-4 1h-9v-2z" fill="#11487F"/>
<path transform="translate(718,287)" d="m0 0 4 5 6 5v2l-6-2-3-4z" fill="#0F4880"/>
<path transform="translate(2e3 507)" d="m0 0 3 1v3l-3 2h-5v-3l2-2z" fill="#2F4A63"/>
<path transform="translate(1349,502)" d="m0 0h1v8l-2 2h-6l5-5z" fill="#5F605F"/>
<path transform="translate(421,498)" d="m0 0h1v12h-2v2h-5l5-6z" fill="#5D5E5D"/>
<path transform="translate(2e3 320)" d="m0 0h11l-1 2-4 1h-7l-2-2z" fill="#094480"/>
<path transform="translate(939,141)" d="m0 0 3 1v16h-1z" fill="#13497E"/>
<path transform="translate(1189,508)" d="m0 0 4 2h2v2l4 1h-12v-3z" fill="#626362"/>
<path transform="translate(1602,500)" d="m0 0h1v11l5 2-3 1-4-2v-10z" fill="#626362"/>
<path transform="translate(1258,505)" d="m0 0 1 2-1 4 3 1-9 1-1-2z" fill="#5D5E5D"/>
<path transform="translate(1228,498)" d="m0 0h1v9l-3 5h-3l2-4 2-6z" fill="#606160"/>
<path transform="translate(886,91)" d="m0 0 3 1-1 2-3 1h-9v-2z" fill="#144A7F"/>
<path transform="translate(1491,506)" d="m0 0 4 2 1 4h-7z" fill="#5F605F"/>
<path transform="translate(1347,438)" d="m0 0h5v10l-2-3-2-4-3-2z" fill="#5C5D5C"/>
<path transform="translate(1318,495)" d="m0 0h4l-1 6-2 2v-2h-3z" fill="#606160"/>
<path transform="translate(1227,438)" d="m0 0h4l1 3v12h-1l-2-13h-2z" fill="#5F605F"/>
<path transform="translate(420,438)" d="m0 0h4l1 2v12h-1l-2-12h-2z" fill="#5F605F"/>
<path transform="translate(1072,89)" d="m0 0h3v2l-6 4h-4v-2z" fill="#0D4880"/>
<path transform="translate(535,500)" d="m0 0h1l1 11 1 2-4-1-1-3z" fill="#606160"/>
<path transform="translate(1218,446)" d="m0 0 2 1v10l-2 2-2-4 2-5z" fill="#636463"/>
<path transform="translate(1872,438)" d="m0 0h5l-2 4-4 4h-2l2-5z" fill="#5B5E5F"/>
<path transform="translate(787,153)" d="m0 0h3l-2 5-5 5 1-5z" fill="#0E4780"/>
<path transform="translate(433,505)" d="m0 0 5 5v3h-11v-1l8-1z" fill="#5F605F"/>
<path transform="translate(1198,506)" d="m0 0 3 4v2h-6l1-5z" fill="#435463"/>
<path transform="translate(623,504)" d="m0 0h1v6l-5 3h-2l2-4 3-1z" fill="#606160"/>
<path transform="translate(1808,477)" d="m0 0h2l-2 5-1 2h-2v2h-2l2-6z" fill="#394F63"/>
</svg>
